<?xml version="1.0" encoding="UTF-8" standalone="no"?>
<svg
   height="48"
   width="48"
   version="1.1"
   id="svg4"
   sodipodi:docname="settings_brightness_FILL0_wght400_GRAD0_opsz48.svg"
   inkscape:version="1.1.2 (0a00cf5339, 2022-02-04, custom)"
   xmlns:inkscape="http://www.inkscape.org/namespaces/inkscape"
   xmlns:sodipodi="http://sodipodi.sourceforge.net/DTD/sodipodi-0.dtd"
   xmlns="http://www.w3.org/2000/svg"
   xmlns:svg="http://www.w3.org/2000/svg">
  <defs
     id="defs8" />
  <sodipodi:namedview
     id="namedview6"
     pagecolor="#ffffff"
     bordercolor="#666666"
     borderopacity="1.0"
     inkscape:pageshadow="2"
     inkscape:pageopacity="0.0"
     inkscape:pagecheckerboard="0"
     showgrid="false"
     inkscape:zoom="17.3125"
     inkscape:cx="24"
     inkscape:cy="23.971119"
     inkscape:window-width="1920"
     inkscape:window-height="1017"
     inkscape:window-x="-8"
     inkscape:window-y="-8"
     inkscape:window-maximized="1"
     inkscape:current-layer="svg4" />
  <path
     d="M24 33.85 26.75 31.1H31.45V26.3L33.95 23.8L31.45 21.35V16.6H26.7L24 13.9L21.3 16.6H16.7V21.35L14.2 23.85L16.7 26.35V31.1H21.3ZM24 29.85V17.95Q26.45 17.95 28.175 19.675Q29.9 21.4 29.9 23.9Q29.9 26.4 28.175 28.125Q26.45 29.85 24 29.85ZM7 40Q5.8 40 4.9 39.1Q4 38.2 4 37V11Q4 9.8 4.9 8.9Q5.8 8 7 8H41Q42.2 8 43.1 8.9Q44 9.8 44 11V37Q44 38.2 43.1 39.1Q42.2 40 41 40ZM7 37Q7 37 7 37Q7 37 7 37V11Q7 11 7 11Q7 11 7 11Q7 11 7 11Q7 11 7 11V37Q7 37 7 37Q7 37 7 37ZM7 37H41Q41 37 41 37Q41 37 41 37V11Q41 11 41 11Q41 11 41 11H7Q7 11 7 11Q7 11 7 11V37Q7 37 7 37Q7 37 7 37Z"
     id="path2" />
  <path
     style="fill:#ececec;stroke-width:0.0577617"
     d="M 6.6425993,39.940187 C 5.4051157,39.775909 4.3060629,38.725989 4.0775405,37.489798 3.9893331,37.01264 3.988402,10.995172 4.0765749,10.508803 4.2686573,9.449263 5.208263,8.4243121 6.2510403,8.1368295 6.6294276,8.0325121 7.2274551,8.0288809 24.028881,8.0288809 c 16.706666,0 17.399828,0.00415 17.732852,0.1060902 1.080783,0.3308435 1.967936,1.3050577 2.161692,2.3738319 0.087,0.4799 0.08734,26.499845 3.47e-4,26.982394 -0.187658,1.040999 -1.062756,2.014668 -2.133162,2.373441 -0.305666,0.102451 -0.970202,0.106766 -17.559567,0.114019 -9.483032,0.0041 -17.3978335,-0.01317 -17.5884472,-0.03847 z M 41.039711,24 V 10.945848 H 24 6.9602888 V 24 37.054152 H 24 41.039711 Z"
     id="path121" />
  <path
     style="fill:#ececec;stroke-width:0.0577617"
     d="m 22.632752,32.404935 -1.318673,-1.356798 -2.296028,-6.03e-4 -2.296029,-6.03e-4 v -2.354294 -2.354294 l -1.241889,-1.240881 -1.241888,-1.240881 1.241888,-1.242852 1.241889,-1.242851 v -2.38219 -2.38219 h 2.324448 2.324449 L 22.68546,15.29289 24,13.979281 l 1.31454,1.313609 1.314541,1.313608 h 2.38221 2.382211 v 2.354295 2.354294 l 1.241286,1.240279 1.241286,1.240279 -1.241286,1.245975 -1.241286,1.245975 v 2.379668 2.379668 H 29.068131 26.74276 l -1.356478,1.357401 c -0.746064,0.746571 -1.374114,1.357401 -1.395668,1.357401 -0.02155,0 -0.632592,-0.610559 -1.357862,-1.356798 z m 2.695768,-2.666813 c 0.581012,-0.116669 1.387308,-0.454837 1.910756,-0.801391 0.519001,-0.343609 1.336221,-1.141991 1.653548,-1.615431 1.054626,-1.573462 1.321951,-3.540776 0.729945,-5.371842 -0.28429,-0.879303 -0.745378,-1.61026 -1.470109,-2.330544 -1.005963,-0.999788 -2.254731,-1.57464 -3.618364,-1.665657 L 24,17.917594 v 5.993838 5.993838 l 0.447653,-0.04008 c 0.24621,-0.02204 0.6426,-0.07922 0.880867,-0.127068 z"
     id="path160" />
</svg>
